<svg width="334" height="113" viewBox="0 0 334 113" fill="none" xmlns="http://www.w3.org/2000/svg">
<path d="M8.649 89V23.9H47.337V31.061H16.554V53.288H43.71V60.449H16.554V89H8.649ZM61.6561 89V23.9H69.0961V89H61.6561ZM107.108 90.116C102.582 90.116 98.5827 89.093 95.1107 87.047C91.6387 84.939 88.9107 82.056 86.9267 78.398C85.0047 74.74 84.0437 70.524 84.0437 65.75C84.0437 60.976 85.0047 56.76 86.9267 53.102C88.9107 49.444 91.6077 46.592 95.0177 44.546C98.4897 42.438 102.458 41.384 106.922 41.384C111.262 41.384 115.013 42.469 118.175 44.639C121.337 46.747 123.786 49.723 125.522 53.567C127.258 57.411 128.126 61.937 128.126 67.145H89.7167L91.5767 65.564C91.5767 69.284 92.2277 72.477 93.5297 75.143C94.8937 77.809 96.7847 79.855 99.2027 81.281C101.621 82.645 104.38 83.327 107.48 83.327C110.766 83.327 113.525 82.552 115.757 81.002C118.051 79.452 119.818 77.406 121.058 74.864L127.475 78.119C126.297 80.537 124.716 82.645 122.732 84.443C120.81 86.241 118.516 87.636 115.85 88.628C113.246 89.62 110.332 90.116 107.108 90.116ZM92.0417 62.402L90.0887 60.914H122.174L120.221 62.495C120.221 59.519 119.632 56.946 118.454 54.776C117.276 52.606 115.695 50.932 113.711 49.754C111.727 48.576 109.433 47.987 106.829 47.987C104.287 47.987 101.869 48.576 99.5747 49.754C97.3427 50.932 95.5137 52.606 94.0877 54.776C92.7237 56.884 92.0417 59.426 92.0417 62.402ZM162.526 90.116C158 90.116 154.001 89.093 150.529 87.047C147.057 84.939 144.329 82.056 142.345 78.398C140.423 74.74 139.462 70.524 139.462 65.75C139.462 60.976 140.423 56.76 142.345 53.102C144.329 49.444 147.026 46.592 150.436 44.546C153.908 42.438 157.876 41.384 162.34 41.384C166.68 41.384 170.431 42.469 173.593 44.639C176.755 46.747 179.204 49.723 180.94 53.567C182.676 57.411 183.544 61.937 183.544 67.145H145.135L146.995 65.564C146.995 69.284 147.646 72.477 148.948 75.143C150.312 77.809 152.203 79.855 154.621 81.281C157.039 82.645 159.798 83.327 162.898 83.327C166.184 83.327 168.943 82.552 171.175 81.002C173.469 79.452 175.236 77.406 176.476 74.864L182.893 78.119C181.715 80.537 180.134 82.645 178.15 84.443C176.228 86.241 173.934 87.636 171.268 88.628C168.664 89.62 165.75 90.116 162.526 90.116ZM147.46 62.402L145.507 60.914H177.592L175.639 62.495C175.639 59.519 175.05 56.946 173.872 54.776C172.694 52.606 171.113 50.932 169.129 49.754C167.145 48.576 164.851 47.987 162.247 47.987C159.705 47.987 157.287 48.576 154.993 49.754C152.761 50.932 150.932 52.606 149.506 54.776C148.142 56.884 147.46 59.426 147.46 62.402ZM215.062 90.116C210.536 90.116 207.033 88.938 204.553 86.582C202.073 84.226 200.833 80.909 200.833 76.631V27.992H208.273V75.887C208.273 78.243 208.893 80.072 210.133 81.374C211.435 82.614 213.233 83.234 215.527 83.234C216.271 83.234 216.984 83.141 217.666 82.955C218.41 82.707 219.371 82.149 220.549 81.281L223.432 87.326C221.82 88.38 220.363 89.093 219.061 89.465C217.759 89.899 216.426 90.116 215.062 90.116ZM192.742 49.103V42.5H222.223V49.103H192.742Z" fill="#274C77"/>
<path d="M284.619 89L258.486 23.9H266.391L292.896 89H284.619ZM231.702 89L258.207 23.9H266.205L240.072 89H231.702ZM244.257 70.493V63.425H280.434V70.493H244.257ZM307.103 89V23.9H315.008V89H307.103Z" fill="url(#paint0_linear_9_26)"/>
<defs>
<linearGradient id="paint0_linear_9_26" x1="238.029" y1="25.5" x2="312.253" y2="93.9435" gradientUnits="userSpaceOnUse">
<stop stop-color="#6096BA"/>
<stop offset="1" stop-color="#6096BA" stop-opacity="0.4"/>
</linearGradient>
</defs>
</svg>
